<svg xmlns="http://www.w3.org/2000/svg" version="1.1" xmlns:xlink="http://www.w3.org/1999/xlink" xmlns:svgjs="http://svgjs.com/svgjs" id="BgenPttrnSvgRootPreview" width="100%" height="100%"><defs><pattern x="0" y="0" width="1" height="1" patternUnits="userSpaceOnUse" id="BgenPttrnLayer1"><g id="PatternRootContent1"><g id="BgenPttrnLayer1background"><rect width="1" height="1" id="BgenPttrnBackground1" class="color_1 fill_color_1" fill="#fbeec1"></rect></g></g></pattern><pattern x="0" y="0" width="58" height="102" patternUnits="userSpaceOnUse" id="BgenPttrnLayer2" patternTransform="matrix(0.44799999999999995,0,0,0.44799999999999995,0,0)"><g id="PatternRootContent2"><g id="BgenPttrnLayer2Element3"><use xlink:href="#BgenPttrnElement3" x="20.822513580322266" y="-57.81134796142578" transform="translate(58, -25.5) scale(1) translate(-58, 25.5) rotate(90, 58, -25.5)"></use><use xlink:href="#BgenPttrnElement3" x="-37.177486419677734" y="-57.81134796142578" transform="translate(0, -25.5) scale(1) translate(0, 25.5) rotate(90, 0, -25.5)"></use><use xlink:href="#BgenPttrnElement3" x="-8.177486419677734" y="-6.811347961425781" transform="translate(29, 25.5) scale(1) translate(-29, -25.5) rotate(90, 29, 25.5)"></use><use xlink:href="#BgenPttrnElement3" x="-66.17748641967773" y="-6.811347961425781" transform="translate(-29, 25.5) scale(1) translate(29, -25.5) rotate(90, -29, 25.5)"></use><use xlink:href="#BgenPttrnElement3" x="49.822513580322266" y="-6.811347961425781" transform="translate(87, 25.5) scale(1) translate(-87, -25.5) rotate(90, 87, 25.5)"></use><use xlink:href="#BgenPttrnElement3" x="20.822513580322266" y="44.18865203857422" transform="translate(58, 76.5) scale(1) translate(-58, -76.5) rotate(90, 58, 76.5)"></use><use xlink:href="#BgenPttrnElement3" x="-37.177486419677734" y="44.18865203857422" transform="translate(0, 76.5) scale(1) translate(0, -76.5) rotate(90, 0, 76.5)"></use><use xlink:href="#BgenPttrnElement3" x="-8.177486419677734" y="95.18865203857422" transform="translate(29, 127.5) scale(1) translate(-29, -127.5) rotate(90, 29, 127.5)"></use><use xlink:href="#BgenPttrnElement3" x="-8.177486419677734" y="95.18865203857422" transform="translate(29, 127.5) scale(1) translate(-29, -127.5) rotate(90, 29, 127.5)"></use></g></g></pattern><symbol id="BgenPttrnElement3"><g class="color_4 fill_color_4" fill="#bc986a"><path d="M38.738,45.465396881103516L38.368,45.26539611816406C39.148,45.525,39.998,45.375,40.738,45.41539764404297L40.758,45.345394134521484C42.608,45.275,44.578,43.675,45.238,42.25539779663086C45.808,41.025,45.908,39.135,45.478,38.26539611816406C45.588,38.385,45.628,38.865,45.708,38.715396881103516C45.578,37.345,45.238,37.655,44.968,36.60539627075195C44.688,36.315,45.188,37.465,44.808,36.83539581298828C44.678,36.275,44.928,36.015,44.068,35.18539810180664C43.948,35.255,44.418,35.715,43.948,35.33539581298828C44.038,34.545,42.148,32.855,41.528,32.49539566040039L41.488,32.685394287109375C40.718,32.375,40.228,31.965,39.768,31.91539764404297C38.628,31.835,36.558,31.465,35.918,31.99539566040039L35.388,31.935394287109375L34.938,32.16539764404297L34.928,32.04539489746094C33.098,32.625,34.888,32.665,32.988,33.43539810180664C33.028,33.325,33.068,33.205,33.308,33.04539489746094C33.118,33.025,32.618,33.285,32.228,33.58539581298828L32.088,33.465396881103516C31.778,33.625,31.708,33.785,31.598,33.8953971862793C31.948,33.265,30.468,34.465,30.278,34.59539794921875L30.448,34.695396423339844C30.208,34.675,29.888,34.865,29.438,35.22539520263672L29.448,35.52539825439453C29.208,35.655,28.768,36.105,28.748,36.375396728515625L28.508,36.195396423339844C28.308,36.885,28.218,36.525,27.918,37.375396728515625L28.218,37.20539474487305C27.848,37.635,27.518,37.765,27.238,38.375396728515625C26.938,39.225,27.058,39.335,26.808,40.195396423339844C26.808,39.465,26.808,38.605,27.028,38.025394439697266C28.098,34.065,32.748,30.465,37.528,30.705394744873047C38.498,30.645,39.708,30.805,39.948,30.645397186279297C40.688,30.865,41.588,31.125,42.658,31.6553955078125C42.728,31.615,42.448,31.745,42.898,32.01539611816406C43.258,32.175,43.648,32.305,43.998,32.51539611816406L44.028,32.615394592285156C44.638,32.725,45.578,34.045,46.048,34.465396881103516L45.868,34.465396881103516C46.678,35.325,47.218,36.865,47.598,37.725399017333984C47.348,37.495,47.628,38.235,47.658,38.76539611816406L47.378,38.275394439697266C47.538,38.905,47.308,38.875,47.408,39.525394439697266C47.378,39.295,47.308,39.025,47.248,39.06539535522461C47.168,39.785,47.468,39.905,47.248,40.57539749145508L47.448,40.525394439697266C47.108,41.465,47.168,41.655,46.628,42.6653938293457C46.618,43.025,46.848,43.065,46.628,43.595394134521484C46.468,43.695,46.438,43.575,46.038,44.23539733886719C46.068,44.305,46.258,44.105,46.408,43.965396881103516C45.698,45.265,44.188,46.715,42.568,47.1453971862793C43.308,46.735,42.178,47.105,42.238,46.965396881103516C41.748,47.145,41.238,47.295,40.708,47.3953971862793C41.138,47.275,42.188,47.005,42.858,46.535396575927734C42.428,46.505,43.158,45.935,42.198,46.24539566040039C41.858,46.465,42.548,46.295,41.948,46.58539962768555C41.658,46.585,41.368,46.695,40.998,46.76539611816406C41.018,46.665,41.408,46.545,41.308,46.465396881103516C40.808,46.565,40.588,46.735,40.548,46.7953987121582C40.468,46.765,40.628,46.675,40.308,46.67539596557617C39.568,46.715,39.878,46.885,39.848,46.965396881103516C39.478,46.875,39.058,46.555,38.428,46.715396881103516L38.988,46.51539611816406C38.458,46.465,38.358,46.625,37.708,46.38539505004883C38.308,46.565,38.808,46.545,38.558,46.375396728515625C37.738,46.465,37.108,45.725,36.578,45.7953987121582L36.868,45.58539962768555C36.038,45.015,36.418,45.575,35.808,45.18539810180664C36.038,45.325,35.888,45.115,36.168,45.2953987121582C36.158,45.175,35.638,44.745,35.338,44.35539627075195C34.108,42.815,33.938,40.965,34.608,39.20539474487305L34.608,39.195396423339844C34.648,39.205,34.698,39.195,34.778,39.07539749145508C35.928,37.565,36.908,36.675,39.188,36.965396881103516C39.358,37.215,40.308,37.275,40.638,37.805397033691406C41.348,38.125,41.998,39.085,42.018,40.11539840698242C42.078,41.165,41.458,42.055,40.878,42.50539779663086C41.628,41.685,41.858,40.365,41.308,39.225399017333984C40.778,38.075,39.508,37.385,38.238,37.465396881103516C38.308,37.525,38.258,37.565,38.418,37.58539581298828C35.948,37.555,34.138,40.245,35.048,42.18539810180664L34.998,42.215396881103516C35.218,42.995,35.388,42.895,35.748,43.405399322509766C35.658,43.365,35.448,43.065,35.448,43.24539566040039C35.508,43.495,36.238,44.275,36.578,44.66539764404297C36.958,44.835,36.808,44.565,37.268,44.81539535522461L37.418,45.11539840698242C37.898,45.285,38.168,45.465,38.738,45.465396881103516" transform="matrix(1,0,0,1,0,0)"></path><path d="M38.545,50.53639602661133L38.904,50.31596755981445C38.289,50.861,37.993,51.672,37.589,52.2934455871582L37.639,52.345767974853516C36.775,53.982,37.176,56.489,38.075,57.770565032958984C38.856,58.879,40.442,59.91,41.411,59.97340774536133C41.252,60.008,40.816,59.803,40.906,59.94759750366211C42.158,60.52,42.059,60.07,43.103,60.36173629760742C43.495,60.264,42.249,60.122,42.984,60.10817337036133C43.534,60.275,43.634,60.622,44.783,60.29231262207031C44.783,60.153,44.149,60.33,44.713,60.1133918762207C45.352,60.586,47.761,59.794,48.383,59.4376106262207L48.238,59.30796813964844C48.892,58.796,49.492,58.576,49.765,58.20340347290039C50.404,57.256,51.76,55.648,51.621,54.82920455932617L51.938,54.400211334228516L51.964,53.895503997802734L52.073,53.946842193603516C52.485,52.072,51.556,53.602,51.839,51.57175064086914C51.914,51.661,51.998,51.756,52.017,52.043880462646484C52.129,51.889,52.154,51.326,52.089,50.83857345581055L52.263,50.77732849121094C52.279,50.428,52.176,50.288,52.135,50.137977600097656C52.506,50.756,52.207,48.874,52.189,48.64482116699219L52.018,48.74204635620117C52.155,48.544,52.15,48.172,52.064,47.602359771728516L51.799,47.461021423339844C51.806,47.188,51.636,46.582,51.413,46.429805755615234L51.689,46.31195831298828C51.191,45.793,51.548,45.895,50.962,45.211002349853516L50.959,45.555809020996094C50.771,45.02,50.824,44.669,50.436,44.12210464477539C49.849,43.437,49.694,43.486,49.074,42.83971405029297C49.707,43.204,50.451,43.634,50.844,44.115238189697266C53.738,47.021,54.531,52.848,51.933,56.868507385253906C51.5,57.738,50.756,58.706,50.775,58.99428939819336C50.214,59.525,49.539,60.174,48.545,60.83621597290039C48.545,60.916,48.572,60.609,48.114,60.86406326293945C47.795,61.095,47.487,61.368,47.131,61.56669235229492L47.029,61.542667388916016C46.629,62.016,45.015,62.17,44.417,62.36703872680664L44.507,62.21115493774414C43.357,62.482,41.753,62.18,40.819,62.07938003540039C41.143,61.977,40.362,61.85,39.888,61.61134719848633L40.452,61.61385726928711C39.827,61.437,39.968,61.253,39.355,61.014835357666016C39.569,61.103,39.838,61.178,39.833,61.10627365112305C39.25,60.677,38.996,60.876,38.525,60.35127639770508L38.469,60.54948043823242C37.825,59.785,37.63,59.742,37.025,58.76933670043945C36.719,58.58,36.569,58.759,36.22,58.30434036254883C36.213,58.115,36.332,58.149,35.961,57.473384857177734C35.885,57.464,35.963,57.728,36.01,57.92881393432617C35.239,56.664,34.738,54.631,35.176,53.013275146484375C35.161,53.859,35.405,52.695,35.496,52.81748580932617C35.586,52.303,35.711,51.786,35.889,51.277469635009766C35.778,51.709,35.487,52.754,35.559,53.56942367553711C35.8,53.212,35.928,54.129,36.14,53.142845153808594C36.119,52.738,35.922,53.421,35.971,52.7563362121582C36.116,52.505,36.165,52.199,36.29,51.8436164855957C36.366,51.911,36.275,52.308,36.394,52.262081146240234C36.558,51.779,36.521,51.503,36.489,51.43890380859375C36.555,51.384,36.553,51.568,36.713,51.29105758666992C37.048,50.63,36.746,50.813,36.691,50.747684478759766C36.954,50.472,37.442,50.268,37.618,49.64292907714844L37.511,50.2279052734375C37.819,49.793,37.731,49.627,38.264,49.184391021728516C37.808,49.614,37.575,50.057,37.847,49.92551040649414C38.179,49.17,39.135,48.994,39.34,48.50078201293945L39.377,48.856929779052734C40.285,48.423,39.61,48.472,40.253,48.13894271850586C40.017,48.268,40.274,48.243,39.978,48.39570999145508C40.087,48.447,40.719,48.211,41.207,48.14691162109375C43.155,47.851,44.843,48.629,46.032,50.0897102355957L46.04,50.0947151184082C46.012,50.124,45.995,50.172,46.059,50.301937103271484C46.792,52.052,47.073,53.346,45.682,55.176109313964844C45.38,55.198,44.853,55.991,44.229,56.011844635009766C43.597,56.466,42.441,56.549,41.539,56.05195999145508C40.599,55.578,40.139,54.597,40.039,53.869693756103516C40.374,54.929,41.402,55.788,42.664,55.882083892822266C43.925,55.998,45.158,55.243,45.724,54.10338592529297C45.637,54.134,45.627,54.07,45.53,54.19926834106445C46.791,52.075,45.366,49.162,43.231,48.98076248168945L43.23,48.922462463378906C42.445,48.723,42.446,48.92,41.824,48.97697830200195C41.904,48.919,42.269,48.887,42.113,48.797176361083984C41.867,48.724,40.826,48.966,40.318,49.0657844543457C39.981,49.309,40.29,49.315,39.843,49.588340759277344L39.509,49.568241119384766C39.121,49.899,38.83,50.042,38.545,50.53639602661133" transform="matrix(1,0,0,1,0,0)"></path><path d="M34.25,47.83439636230469L34.262,48.254825592041016C34.097,47.449,33.542,46.788,33.207,46.12734603881836L33.136,46.145023345947266C32.15,44.577,29.78,43.671,28.22,43.81023025512695C26.87,43.931,25.183,44.79,24.645,45.59738540649414C24.694,45.442,25.089,45.167,24.919,45.17319869995117C23.798,45.97,24.236,46.11,23.462,46.86906051635742C23.351,47.256,24.097,46.248,23.741,46.89262008666992C23.321,47.285,22.971,47.198,22.682,48.35847854614258C22.803,48.427,22.966,47.79,22.872,48.38740158081055C22.143,48.704,21.624,51.186,21.623,51.9031867980957L21.807,51.84282684326172C21.924,52.664,21.814,53.294,22,53.71738815307617C22.501,54.744,23.216,56.722,23.995,57.01158905029297L24.208,57.50058364868164L24.632,57.77529525756836L24.533,57.84395217895508C25.95,59.138,25.09,57.568,26.707,58.829044342041016C26.591,58.849,26.468,58.874,26.209,58.74691390991211C26.287,58.921,26.762,59.224,27.217,59.4122200012207L27.183,59.59346389770508C27.476,59.782,27.65,59.762,27.8,59.802818298339844C27.079,59.814,28.859,60.496,29.066,60.59597396850586L29.068,60.398746490478516C29.171,60.616,29.495,60.798,30.032,61.0084342956543L30.287,60.84977340698242C30.519,60.992,31.129,61.148,31.373,61.0309944152832L31.337,61.32883071899414C32.034,61.157,31.768,61.415,32.654,61.24979019165039L32.357,61.07498550415039C32.914,61.18,33.192,61.401,33.86,61.338687896728516C34.746,61.173,34.781,61.014,35.651,60.801082611083984C35.019,61.166,34.274,61.596,33.662,61.695552825927734C29.697,62.748,24.255,60.521,22.072,56.26228713989258C21.535,55.452,21.069,54.324,20.81,54.19650650024414C20.631,53.445,20.406,52.536,20.33,51.34457778930664C20.261,51.304,20.513,51.481,20.522,50.956729888916016C20.481,50.565,20.398,50.162,20.405,49.75410079956055L20.477,49.67811965942383C20.267,49.094,20.94,47.62,21.069,47.00374984741211L21.159,47.15963363647461C21.498,46.028,22.562,44.79,23.117,44.031410217285156C23.043,44.362,23.544,43.75,23.988,43.459449768066406L23.703,43.94693374633789C24.169,43.493,24.258,43.707,24.771,43.295955657958984C24.587,43.437,24.388,43.632,24.452,43.664520263671875C25.116,43.373,25.07,43.054,25.76,42.90951919555664L25.617,42.761314392089844C26.601,42.585,26.735,42.438,27.88,42.40145492553711C28.197,42.23,28.117,42.011,28.686,41.936458587646484C28.852,42.025,28.763,42.111,29.535,42.127410888671875C29.58,42.066,29.312,42.001,29.116,41.94198226928711C30.597,41.906,32.608,42.489,33.79,43.67751693725586C33.065,43.241,33.95,44.035,33.799,44.053306579589844C34.2,44.387,34.585,44.754,34.936,45.163326263427734C34.618,44.851,33.859,44.076,33.117,43.73137283325195C33.306,44.118,32.447,43.771,33.195,44.44794845581055C33.556,44.632,33.064,44.119,33.615,44.49445343017578C33.76,44.745,34,44.941,34.246,45.227176666259766C34.149,45.259,33.85,44.982,33.831,45.10871124267578C34.168,45.491,34.425,45.597,34.497,45.601890563964844C34.511,45.686,34.353,45.592,34.513,45.8697395324707C34.918,46.49,34.91,46.137,34.994,46.12310791015625C35.101,46.488,35.034,47.012,35.488,47.47786331176758L35.034,47.092891693115234C35.256,47.576,35.445,47.583,35.562,48.26640319824219C35.418,47.656,35.15,47.233,35.128,47.535282135009766C35.616,48.2,35.29,49.116,35.616,49.54001235961914L35.289,49.393863677978516C35.21,50.397,35.505,49.788,35.473,50.5118522644043C35.479,50.242,35.372,50.477,35.388,50.145084381103516C35.289,50.213,35.176,50.879,34.989,51.33388137817383C34.27,53.169,32.753,54.241,30.894,54.541080474853516L30.885,54.54608154296875C30.874,54.506,30.84,54.468,30.696,54.458858489990234C28.813,54.218,27.553,53.814,26.664,51.69468307495117C26.795,51.422,26.372,50.569,26.666,50.01894760131836C26.588,49.244,27.095,48.201,27.977,47.6688346862793C28.856,47.091,29.937,47.183,30.617,47.46110153198242C29.531,47.221,28.273,47.682,27.561,48.72871017456055C26.83,49.762,26.868,51.207,27.572,52.26740646362305C27.589,52.176,27.648,52.2,27.586,52.0515251159668C28.795,54.205,32.029,54.428,33.254,52.6700325012207L33.305,52.69832992553711C33.871,52.117,33.699,52.02,33.961,51.45381546020508C33.971,51.551,33.817,51.883,33.972,51.79362106323242C34.159,51.616,34.469,50.594,34.637,50.105010986328125C34.594,49.69,34.436,49.955,34.422,49.43245315551758L34.607,49.15255355834961C34.514,48.651,34.535,48.328,34.25,47.83439636230469" transform="matrix(1,0,0,1,0,0)"></path><path d="M22.155,22.14731788635254L22.513,21.926889419555664C21.898,22.473,21.603,23.284,21.198,23.904367446899414L21.248,23.956689834594727C20.384,25.594,20.785,28.1,21.684,29.381484985351562C22.465,30.49,24.052,31.522,25.02,31.584331512451172C24.861,31.62,24.425,31.414,24.515,31.558517456054688C25.767,32.131,25.668,31.682,26.713,31.97265625C27.104,31.875,25.858,31.733,26.593,31.719093322753906C27.143,31.887,27.244,32.233,28.392,31.90323257446289C28.392,31.765,27.758,31.942,28.322,31.72431182861328C28.962,32.197,31.37,31.406,31.992,31.04853057861328L31.847,30.918888092041016C32.501,30.407,33.101,30.188,33.374,29.81432342529297C34.014,28.867,35.369,27.26,35.23,26.440126419067383L35.547,26.011133193969727L35.573,25.50642204284668L35.682,25.55776023864746C36.094,23.683,35.165,25.213,35.448,23.18267059326172C35.523,23.273,35.607,23.367,35.626,23.654800415039062C35.738,23.5,35.763,22.937,35.698,22.449493408203125L35.872,22.388248443603516C35.888,22.04,35.785,21.899,35.744,21.7488956451416C36.115,22.367,35.816,20.486,35.798,20.2557430267334L35.627,20.352968215942383C35.764,20.155,35.76,19.783,35.673,19.213281631469727L35.408,19.071941375732422C35.415,18.799,35.246,18.193,35.022,18.04072380065918L35.298,17.92287826538086C34.8,17.405,35.157,17.507,34.571,16.821922302246094L34.568,17.166730880737305C34.381,16.632,34.433,16.281,34.045,15.733024597167969C33.459,15.048,33.303,15.097,32.683,14.450634002685547C33.316,14.816,34.061,15.246,34.453,15.726160049438477C37.347,18.633,38.14,24.46,35.542,28.479427337646484C35.109,29.35,34.366,30.318,34.384,30.605209350585938C33.824,31.136,33.148,31.786,32.154,32.44713592529297C32.154,32.528,32.182,32.221,31.723,32.47498321533203C31.404,32.707,31.097,32.98,30.74,33.1776123046875L30.638,33.15359115600586C30.238,33.627,28.625,33.781,28.026,33.97796630859375L28.116,33.822078704833984C26.966,34.094,25.362,33.791,24.428,33.690303802490234C24.752,33.589,23.971,33.462,23.497,33.22226333618164L24.061,33.22477722167969C23.436,33.049,23.577,32.864,22.964,32.62575912475586C23.178,32.715,23.447,32.789,23.442,32.717193603515625C22.859,32.288,22.605,32.488,22.134,31.962196350097656L22.078,32.160400390625C21.434,31.396,21.239,31.353,20.634,30.380260467529297C20.328,30.192,20.178,30.371,19.829,29.915260314941406C19.823,29.727,19.941,29.761,19.57,29.084304809570312C19.494,29.076,19.572,29.34,19.619,29.53973388671875C18.848,28.275,18.347,26.242,18.785,24.624195098876953C18.77,25.47,19.014,24.307,19.105,24.42840576171875C19.195,23.914,19.32,23.398,19.498,22.88838768005371C19.387,23.321,19.096,24.365,19.168,25.180343627929688C19.409,24.823,19.538,25.74,19.749,24.753765106201172C19.729,24.35,19.531,25.032,19.58,24.367259979248047C19.725,24.116,19.774,23.81,19.899,23.45453453063965C19.975,23.522,19.884,23.92,20.003,23.873004913330078C20.167,23.39,20.13,23.115,20.098,23.049823760986328C20.164,22.996,20.162,23.179,20.322,22.901979446411133C20.657,22.241,20.355,22.425,20.3,22.358606338500977C20.564,22.083,21.051,21.88,21.227,21.253849029541016L21.12,21.838823318481445C21.429,21.405,21.34,21.238,21.873,20.795312881469727C21.417,21.225,21.184,21.668,21.456,21.536434173583984C21.789,20.782,22.744,20.606,22.949,20.11170196533203L22.986,20.467849731445312C23.894,20.034,23.219,20.083,23.862,19.74986457824707C23.626,19.879,23.883,19.854,23.587,20.00663185119629C23.696,20.058,24.328,19.823,24.816,19.757831573486328C26.765,19.463,28.452,20.241,29.641,21.700632095336914L29.65,21.70563316345215C29.621,21.736,29.605,21.784,29.668,21.912857055664062C30.401,23.664,30.682,24.958,29.291,26.787029266357422C28.989,26.809,28.462,27.602,27.838,27.622766494750977C27.206,28.078,26.05,28.161,25.148,27.66288185119629C24.209,27.19,23.748,26.208,23.648,25.480613708496094C23.983,26.54,25.011,27.4,26.274,27.493003845214844C27.535,27.609,28.767,26.854,29.333,25.714303970336914C29.246,25.745,29.236,25.682,29.139,25.810190200805664C30.4,23.686,28.975,20.774,26.84,20.591684341430664L26.839,20.533382415771484C26.054,20.334,26.055,20.531,25.434,20.587900161743164C25.513,20.53,25.878,20.498,25.722,20.40809440612793C25.476,20.335,24.435,20.577,23.927,20.67670249938965C23.59,20.921,23.899,20.926,23.452,21.199260711669922L23.118,21.17916488647461C22.731,21.51,22.44,21.654,22.155,22.14731788635254" transform="matrix(1,0,0,1,0,0)"></path><path d="M17.859,19.44467544555664L17.871,19.86579132080078C17.706,19.061,17.152,18.399,16.816,17.738229751586914L16.745,17.755369186401367C15.76,16.189,13.389,15.283,11.829,15.42055892944336C10.479,15.543,8.793,16.401,8.254,17.20819664001465C8.303,17.053,8.699,16.778,8.529,16.783761978149414C7.407,17.582,7.846,17.721,7.071,18.47934913635254C6.96,18.868,7.706,17.86,7.351,18.503074645996094C6.931,18.896,6.58,18.809,6.292,19.968982696533203C6.412,20.039,6.576,19.401,6.481,19.99782371520996C5.752,20.315,5.234,22.797,5.232,23.514026641845703L5.417,23.45327377319336C5.533,24.276,5.423,24.905,5.61,25.327978134155273C6.11,26.355,6.825,28.333,7.604,28.622421264648438L7.817,29.111446380615234L8.241,29.38631820678711L8.142,29.455047607421875C9.559,30.749,8.699,29.18,10.316,30.439937591552734C10.201,30.46,10.076,30.486,9.818,30.358028411865234C9.896,30.532,10.371,30.836,10.826,31.02303695678711L10.792,31.204345703125C11.086,31.393,11.259,31.374,11.409,31.413169860839844C10.689,31.425,12.468,32.108,12.676,32.20651626586914L12.677,32.00981140136719C12.78,32.228,13.104,32.409,13.641,32.61949157714844L13.896,32.46066665649414C14.128,32.603,14.738,32.759,14.982,32.64198684692383L14.946,32.93993377685547C15.644,32.768,15.377,33.026,16.263,32.860809326171875L15.966,32.68581008911133C16.524,32.791,16.801,33.012,17.469,32.949729919433594C18.355,32.784,18.391,32.625,19.26,32.411399841308594C18.628,32.777,17.884,33.207,17.271,33.30650329589844C13.307,34.36,7.864,32.133,5.682,27.872968673706055C5.145,27.063,4.679,25.935,4.42,25.807220458984375C4.24,25.056,4.016,24.147,3.939,22.955018997192383C3.87,22.915,4.123,23.092,4.131,22.567840576171875C4.09,22.176,4.008,21.773,4.014,21.365222930908203L4.086,21.288896560668945C3.876,20.706,4.549,19.231,4.678,18.614654541015625L4.768,18.770538330078125C5.108,17.639,6.172,16.401,6.726,15.642524719238281C6.652,15.974,7.153,15.361,7.597,15.070274353027344L7.313,15.557455062866211C7.778,15.105,7.867,15.319,8.38,14.906936645507812C8.196,15.048,7.997,15.244,8.062,15.275177001953125C8.725,14.985,8.679,14.665,9.369,14.519916534423828L9.226,14.372316360473633C10.21,14.197,10.344,14.049,11.489,14.011844635009766C11.806,13.842,11.726,13.622,12.295,13.547195434570312C12.462,13.636,12.373,13.722,13.144,13.738372802734375C13.19,13.677,12.922,13.613,12.725,13.553092956542969C14.206,13.518,16.217,14.1,17.399,15.288597106933594C16.674,14.853,17.56,15.646,17.408,15.663619995117188C17.809,15.999,18.194,16.366,18.546,16.773975372314453C18.227,16.462,17.468,15.688,16.726,15.34221076965332C16.915,15.73,16.056,15.382,16.805,16.058658599853516C17.166,16.243,16.673,15.731,17.224,16.10555648803711C17.369,16.357,17.609,16.552,17.855,16.838178634643555C17.758,16.87,17.46,16.593,17.44,16.719011306762695C17.777,17.103,18.034,17.209,18.106,17.212873458862305C18.12,17.298,17.962,17.204,18.122,17.480785369873047C18.527,18.101,18.519,17.748,18.603,17.73341941833496C18.71,18.099,18.643,18.624,19.097,19.088603973388672L18.644,18.70345115661621C18.866,19.188,19.054,19.194,19.171,19.8773250579834C19.027,19.268,18.759,18.844,18.737,19.145631790161133C19.226,19.811,18.9,20.727,19.225,21.150972366333008L18.898,21.004941940307617C18.819,22.008,19.115,21.399,19.082,22.122573852539062C19.088,21.854,18.981,22.089,18.997,21.756032943725586C18.898,21.825,18.786,22.49,18.598,22.944778442382812C17.88,24.78,16.362,25.853,14.503,26.151948928833008L14.494,26.1563777923584C14.483,26.118,14.45,26.079,14.305,26.0692195892334C12.423,25.829,11.162,25.425,10.273,23.305641174316406C10.405,23.033,9.981,22.18,10.276,21.629438400268555C10.198,20.855,10.704,19.812,11.586,19.27977180480957C12.466,18.703,13.546,18.795,14.226,19.071868896484375C13.141,18.832,11.883,19.293,11.17,20.338991165161133C10.439,21.373,10.477,22.818,11.181,23.878376007080078C11.198,23.788,11.258,23.811,11.195,23.66242790222168C12.404,25.817,15.639,26.039,16.864,24.28068733215332L16.915,24.308971405029297C17.48,23.729,17.309,23.631,17.57,23.0640811920166C17.58,23.162,17.426,23.494,17.582,23.404264450073242C17.768,23.228,18.079,22.205,18.246,21.715444564819336C18.204,21.302,18.044,21.567,18.031,21.042804718017578L18.216,20.763599395751953C18.123,20.262,18.145,19.939,17.859,19.44467544555664" transform="matrix(1,0,0,1,0,0)"></path><path d="M22.347,17.076095581054688L21.977,16.876272201538086C22.757,17.136,23.607,16.986,24.347,17.026357650756836L24.367,16.956029891967773C26.218,16.886,28.187,15.287,28.847,13.866046905517578C29.417,12.637,29.517,10.746,29.087,9.876426696777344C29.197,9.997,29.237,10.476,29.317,10.325811386108398C29.187,8.957,28.847,9.266,28.577,8.216081619262695C28.297,7.927,28.797,9.077,28.417,8.445920944213867C28.287,7.886,28.537,7.626,27.677,6.795871257781982C27.557,6.866,28.027,7.326,27.557,6.9459547996521C27.647,6.156,25.757,4.466,25.137,4.10639762878418L25.097,4.295925617218018C24.327,3.987,23.837,3.576,23.377,3.525787353515625C22.237,3.446,20.167,3.077,19.527,3.60640811920166L18.997,3.546375274658203L18.547,3.776214599609375L18.537,3.6561474800109863C16.707,4.236,18.497,4.277,16.597,5.046342372894287C16.637,4.936,16.677,4.817,16.917,4.656125068664551C16.727,4.637,16.227,4.897,15.837,5.196425914764404L15.697,5.076359272003174C15.387,5.236,15.317,5.397,15.207,5.506021022796631C15.558,4.876,14.077,6.077,13.887,6.205832004547119L14.057,6.306175708770752C13.817,6.287,13.497,6.476,13.047,6.836181163787842L13.057,7.136348247528076C12.817,7.266,12.377,7.716,12.357,7.986243724822998L12.117,7.8061442375183105C11.917,8.496,11.827,8.136,11.527,8.986221313476562L11.827,8.816413879394531C11.457,9.246,11.127,9.377,10.847,9.986200332641602C10.547,10.836,10.667,10.946,10.417,11.806055068969727C10.417,11.076,10.417,10.216,10.637,9.636295318603516C11.708,5.676,16.357,2.077,21.137,2.31569242477417C22.107,2.256,23.317,2.416,23.557,2.2556591033935547C24.297,2.476,25.197,2.736,26.267,3.265930652618408C26.336,3.226,26.057,3.356,26.507,3.626131534576416C26.866,3.787,27.257,3.916,27.607,4.126120090484619L27.637,4.22646427154541C28.247,4.337,29.187,5.657,29.657,6.0763373374938965L29.477,6.0763373374938965C30.287,6.936,30.827,8.476,31.207,9.336126327514648C30.957,9.107,31.237,9.847,31.267,10.376415252685547L30.987,9.885854721069336C31.147,10.516,30.917,10.487,31.017,11.136260986328125C30.986,10.906,30.917,10.637,30.857,10.675716400146484C30.777,11.397,31.077,11.516,30.857,12.185977935791016L31.057,12.136238098144531C30.717,13.077,30.778,13.266,30.237,14.275985717773438C30.227,14.636,30.456,14.676,30.237,15.206501007080078C30.077,15.306,30.047,15.186,29.647,15.84627914428711C29.677,15.916,29.868,15.716,30.017,15.576129913330078C29.307,16.877,27.797,18.327,26.177,18.756162643432617C26.917,18.347,25.787,18.716,25.847,18.57606315612793C25.357,18.757,24.847,18.906,24.317,19.00572395324707C24.746,18.887,25.797,18.617,26.467,18.14640235900879C26.037,18.117,26.767,17.546,25.807,17.855663299560547C25.467,18.076,26.157,17.907,25.557,18.196142196655273C25.267,18.196,24.977,18.306,24.607,18.37624168395996C24.628,18.276,25.017,18.156,24.917,18.076072692871094C24.417,18.177,24.197,18.346,24.157,18.40625762939453C24.077,18.376,24.237,18.287,23.917,18.286190032958984C23.177,18.327,23.487,18.496,23.457,18.57606315612793C23.087,18.486,22.667,18.166,22.037,18.326499938964844L22.597,18.12581443786621C22.067,18.077,21.967,18.237,21.317,17.996318817138672C21.917,18.177,22.418,18.156,22.167,17.98602294921875C21.347,18.076,20.717,17.336,20.187,17.406278610229492L20.477,17.196163177490234C19.647,16.626,20.027,17.186,19.417,16.79651641845703C19.647,16.937,19.497,16.727,19.777,16.90629005432129C19.767,16.787,19.247,16.356,18.947,15.966346740722656C17.717,14.426,17.547,12.576,18.217,10.81637191772461L18.217,10.80607795715332C18.257,10.817,18.307,10.806,18.387,10.686010360717773C19.537,9.176,20.517,8.287,22.797,8.576282501220703C22.967,8.826,23.917,8.886,24.247,9.415882110595703C24.957,9.736,25.607,10.696,25.627,11.726299285888672C25.687,12.776,25.067,13.667,24.487,14.116472244262695C25.237,13.296,25.467,11.976,24.917,10.83609390258789C24.387,9.686,23.117,8.997,21.847,9.076271057128906C21.917,9.137,21.867,9.176,22.027,9.19633674621582C19.557,9.167,17.747,11.856,18.657,13.795717239379883L18.607,13.825735092163086C18.827,14.607,18.997,14.506,19.357,15.016107559204102C19.268,14.976,19.057,14.677,19.057,14.855730056762695C19.117,15.107,19.847,15.886,20.187,16.27593994140625C20.568,16.446,20.417,16.177,20.877,16.426023483276367L21.027,16.7261905670166C21.507,16.896,21.777,17.076,22.347,17.076095581054688" transform="matrix(1,0,0,1,0,0)"></path><path d="M50.64,19.444862365722656L50.652,19.865291595458984C50.487,19.06,49.932,18.399,49.597,17.737812042236328L49.526,17.755491256713867C48.541,16.189,46.17,15.283,44.61,15.420698165893555C43.26,15.542,41.573,16.401,41.035,17.207849502563477C41.084,17.053,41.479,16.778,41.31,16.78366470336914C40.188,17.581,40.626,17.721,39.852,18.479522705078125C39.741,18.867,40.487,17.859,40.131,18.503087997436523C39.711,18.896,39.361,18.809,39.072,19.968948364257812C39.193,20.038,39.356,19.401,39.262,19.99786949157715C38.533,20.315,38.014,22.797,38.013,23.51365089416504L38.197,23.453292846679688C38.314,24.275,38.204,24.905,38.391,25.327856063842773C38.891,26.355,39.606,28.333,40.385,28.622055053710938L40.598,29.111045837402344L41.022,29.385761260986328L40.923,29.454418182373047C42.34,30.749,41.48,29.179,43.097,30.439510345458984C42.982,30.46,42.858,30.485,42.599,30.357379913330078C42.677,30.532,43.152,30.835,43.607,31.022689819335938L43.573,31.203933715820312C43.866,31.393,44.04,31.373,44.19,31.413284301757812C43.47,31.425,45.249,32.107,45.456,32.20643615722656L45.458,32.009212493896484C45.561,32.227,45.885,32.409,46.422,32.618900299072266L46.677,32.46023941040039C46.909,32.603,47.519,32.759,47.763,32.641456604003906L47.727,32.93930435180664C48.425,32.768,48.158,33.026,49.044,32.86025619506836L48.747,32.68545150756836C49.304,32.791,49.582,33.012,50.25,32.949153900146484C51.136,32.784,51.171,32.625,52.041,32.41154479980469C51.409,32.777,50.664,33.207,50.052,33.3060188293457C46.087,34.36,40.645,32.133,38.463,27.872753143310547C37.926,27.063,37.459,25.935,37.201,25.80697250366211C37.021,25.056,36.796,24.147,36.72,22.95504379272461C36.651,22.915,36.903,23.092,36.912,22.567195892333984C36.871,22.176,36.788,21.773,36.795,21.36456871032715L36.867,21.28858757019043C36.657,20.706,37.33,19.231,37.459,18.614215850830078L37.549,18.77010154724121C37.889,17.639,38.952,16.401,39.507,15.641876220703125C39.433,15.974,39.934,15.361,40.378,15.069915771484375L40.093,15.557401657104492C40.559,15.104,40.648,15.318,41.161,14.906421661376953C40.977,15.048,40.778,15.243,40.843,15.274986267089844C41.506,14.984,41.46,14.665,42.15,14.519987106323242L42.007,14.371780395507812C42.991,14.196,43.126,14.049,44.27,14.011920928955078C44.587,13.841,44.507,13.622,45.076,13.546920776367188C45.242,13.636,45.153,13.722,45.925,13.737876892089844C45.97,13.677,45.702,13.613,45.506,13.552448272705078C46.987,13.518,48.998,14.1,50.18,15.287984848022461C49.455,14.852,50.34,15.646,50.189,15.663774490356445C50.59,15.998,50.975,16.365,51.327,16.773792266845703C51.008,16.462,50.249,15.687,49.507,15.341836929321289C49.696,15.729,48.837,15.382,49.586,16.058414459228516C49.946,16.243,49.454,15.731,50.005,16.10491943359375C50.15,16.356,50.39,16.552,50.636,16.837646484375C50.539,16.871,50.24,16.593,50.221,16.719175338745117C50.558,17.102,50.815,17.208,50.887,17.212356567382812C50.901,17.297,50.743,17.203,50.903,17.480201721191406C51.308,18.101,51.3,17.748,51.384,17.73357391357422C51.491,18.099,51.424,18.623,51.878,19.08833122253418L51.425,18.703357696533203C51.646,19.188,51.835,19.194,51.952,19.876867294311523C51.808,19.267,51.54,18.844,51.518,19.1457462310791C52.006,19.811,51.68,20.727,52.006,21.15047836303711L51.679,21.004329681396484C51.6,22.008,51.895,21.399,51.863,22.122316360473633C51.869,21.853,51.762,22.088,51.778,21.75554847717285C51.679,21.824,51.567,22.49,51.379,22.94434928894043C50.66,24.78,49.143,25.852,47.284,26.151548385620117L47.275,26.15654754638672C47.264,26.117,47.23,26.079,47.086,26.069324493408203C45.203,25.829,43.943,25.425,43.054,23.305150985717773C43.185,23.033,42.762,22.18,43.056,21.629413604736328C42.978,20.855,43.485,19.812,44.367,19.279298782348633C45.246,18.703,46.327,18.795,47.007,19.07156753540039C45.921,18.832,44.663,19.293,43.951,20.339176177978516C43.22,21.373,43.258,22.818,43.962,23.87787628173828C43.979,23.787,44.038,23.811,43.976,23.661991119384766C45.185,25.816,48.419,26.039,49.645,24.28049659729004L49.696,24.30879783630371C50.261,23.729,50.089,23.631,50.351,23.064279556274414C50.361,23.162,50.207,23.494,50.363,23.404085159301758C50.549,23.227,50.859,22.205,51.027,21.715476989746094C50.984,21.302,50.826,21.567,50.812,21.042919158935547L50.997,20.763015747070312C50.904,20.263,50.925,19.939,50.64,19.444862365722656" transform="matrix(1,0,0,1,0,0)"></path><path d="M55.128,17.07650375366211L54.758,16.875816345214844C55.538,17.136,56.388,16.987,57.128,17.02589988708496L57.148,16.956438064575195C58.997,16.887,60.968,15.286,61.628,13.866455078125C62.198,12.636,62.298,10.747,61.868,9.875968933105469C61.978,9.996,62.018,10.476,62.098,10.32621955871582C61.968,8.956,61.628,9.267,61.358,8.216489791870117C61.078,7.926,61.578,9.076,61.198,8.446331024169922C61.068,7.887,61.318,7.627,60.458,6.796280384063721C60.338,6.866,60.808,7.327,60.338,6.946363925933838C60.428,6.157,58.538,4.466,57.918,4.105940818786621L57.878,4.296335220336914C57.108,3.986,56.618,3.576,56.158,3.5261945724487305C55.018,3.447,52.948,3.076,52.308,3.6059517860412598L51.778,3.5459160804748535L51.328,3.775757312774658L51.318,3.6556906700134277C49.488,4.236,51.278,4.276,49.378,5.0458855628967285C49.418,4.936,49.458,4.816,49.698,4.65566873550415C49.508,4.636,49.008,4.896,48.618,5.195970058441162L48.478,5.075902462005615C48.168,5.237,48.098,5.396,47.988,5.506428241729736C48.338,4.876,46.858,6.076,46.668,6.206240177154541L46.838,6.305718898773193C46.598,6.286,46.278,6.476,45.828,6.835724353790283L45.838,7.135889530181885C45.598,7.266,45.158,7.717,45.138,7.985785961151123L44.898,7.805684566497803C44.698,8.496,44.607,8.136,44.308,8.985763549804688L44.608,8.815958023071289C44.238,9.247,43.908,9.376,43.628,9.985742568969727C43.328,10.837,43.448,10.946,43.198,11.806465148925781C43.197,11.076,43.198,10.217,43.418,9.63583755493164C44.488,5.677,49.137,2.076,53.918,2.3161001205444336C54.888,2.256,56.098,2.417,56.338,2.2560672760009766C57.078,2.477,57.978,2.737,59.048,3.2663393020629883C59.118,3.226,58.838,3.357,59.288,3.625673770904541C59.648,3.786,60.038,3.917,60.388,4.125661849975586L60.418,4.22600793838501C61.028,4.336,61.969,5.657,62.438,6.075880527496338L62.258,6.0758795738220215C63.068,6.936,63.608,8.477,63.988,9.335668563842773C63.737,9.106,64.018,9.846,64.048,10.375959396362305L63.768,9.88626480102539C63.928,10.516,63.698,10.486,63.798,11.135805130004883C63.767,10.906,63.698,10.636,63.638,10.676124572753906C63.558,11.396,63.857,11.516,63.638,12.186386108398438L63.838,12.135782241821289C63.498,13.076,63.558,13.266,63.018,14.27639389038086C63.007,14.636,63.238,14.677,63.018,15.206043243408203C62.858,15.307,62.828,15.187,62.428,15.845821380615234C62.458,15.916,62.648,15.717,62.798,15.575672149658203C62.088,16.876,60.578,18.326,58.958,18.755704879760742C59.698,18.346,58.568,18.717,58.628,18.57647132873535C58.138,18.756,57.628,18.906,57.098,19.006134033203125C57.528,18.887,58.578,18.616,59.248,18.14594268798828C58.818,18.116,59.548,17.547,58.588,17.8560733795166C58.248,18.077,58.938,17.906,58.338,18.195682525634766C58.048,18.196,57.758,18.306,57.388,18.375783920288086C57.408,18.276,57.798,18.157,57.698,18.07648277282715C57.198,18.176,56.978,18.346,56.938,18.405799865722656C56.858,18.376,57.018,18.286,56.698,18.285734176635742C55.958,18.326,56.268,18.496,56.238,18.57647132873535C55.868,18.487,55.448,18.166,54.818,18.3260440826416L55.378,18.126220703125C54.848,18.077,54.748,18.236,54.098,17.995861053466797C54.698,18.176,55.198,18.156,54.948,17.986433029174805C54.128,18.077,53.498,17.337,52.968,17.405820846557617L53.258,17.19570541381836C52.428,16.626,52.808,17.186,52.198,16.79606056213379C52.428,16.936,52.278,16.726,52.558,16.905832290649414C52.548,16.786,52.028,16.356,51.728,15.965887069702148C50.498,14.427,50.328,12.576,50.998,10.815914154052734L50.998,10.806486129760742C51.038,10.816,51.088,10.807,51.168,10.686418533325195C52.318,9.177,53.298,8.286,55.578,8.575824737548828C55.748,8.826,56.698,8.886,57.028,9.416290283203125C57.738,9.737,58.388,10.696,58.408,11.725841522216797C58.468,12.777,57.848,13.666,57.268,14.116016387939453C58.018,13.296,58.248,11.977,57.698,10.836503982543945C57.168,9.687,55.898,8.996,54.628,9.075813293457031C54.698,9.136,54.648,9.177,54.808,9.195880889892578C52.338,9.166,50.528,11.857,51.438,13.796127319335938L51.388,13.826143264770508C51.608,14.606,51.778,14.506,52.138,15.016515731811523C52.048,14.976,51.838,14.676,51.838,14.856138229370117C51.898,15.106,52.628,15.886,52.968,16.276350021362305C53.348,16.447,53.198,16.176,53.658,16.42643165588379L53.808,16.72573471069336C54.289,16.896,54.558,17.077,55.128,17.07650375366211" transform="matrix(1,0,0,1,0,0)"></path><path d="M54.936,22.147085189819336L55.294,21.92647933959961C54.679,22.472,54.384,23.283,53.979,23.90387535095215L54.03,23.95652198791504C53.165,25.594,53.565,28.1,54.466,29.381301879882812C55.246,30.49,56.833,31.522,57.801,31.583763122558594C57.642,31.619,57.206,31.414,57.297,31.55856704711914C58.547,32.131,58.45,31.682,59.494,31.972434997558594C59.885,31.875,58.639,31.733,59.375,31.719032287597656C59.925,31.887,60.024,32.233,61.174,31.90322494506836C61.173,31.764,60.54,31.942,61.104,31.724220275878906C61.743,32.197,64.152,31.406,64.773,31.047992706298828L64.629,30.9188232421875C65.282,30.407,65.882,30.187,66.156,29.81439971923828C66.794,28.867,68.15,27.259,68.011,26.439579010009766L68.328,26.0106201171875L68.354,25.50606918334961L68.463,25.55747413635254C68.875,23.683,67.946,25.213,68.229,23.182191848754883C68.304,23.273,68.388,23.367,68.407,23.6545352935791C68.519,23.5,68.544,22.937,68.479,22.448928833007812L68.653,22.387752532958984C68.67,22.04,68.566,21.899,68.526,21.748737335205078C68.896,22.368,68.597,20.485,68.58,20.255773544311523L68.408,20.35265350341797C68.545,20.155,68.54,19.783,68.454,19.212961196899414L68.189,19.071455001831055C68.196,18.799,68.026,18.193,67.803,18.040342330932617L68.079,17.922597885131836C67.582,17.405,67.938,17.506,67.352,16.821565628051758L67.349,17.166175842285156C67.162,16.631,67.214,16.28,66.826,15.732688903808594C66.24,15.048,66.084,15.097,65.465,14.450441360473633C66.097,14.815,66.842,15.246,67.234,15.725728988647461C70.128,18.633,70.92,24.46,68.324,28.479597091674805C67.891,29.35,67.147,30.317,67.166,30.605411529541016C66.604,31.136,65.93,31.786,64.936,32.44706726074219C64.935,32.527,64.963,32.22,64.504,32.47471618652344C64.185,32.706,63.878,32.979,63.521,33.17735290527344L63.419,33.152992248535156C63.018,33.627,61.405,33.781,60.807,33.97748947143555L60.897,33.82160568237305C59.748,34.094,58.143,33.791,57.209,33.690040588378906C57.532,33.589,56.752,33.461,56.278,33.221710205078125L56.843,33.22478485107422C56.217,33.048,56.358,32.864,55.745,32.62535858154297C55.959,32.714,56.228,32.789,56.224,32.71733856201172C55.639,32.288,55.386,32.487,54.916,31.962078094482422L54.859,32.1600227355957C54.214,31.396,54.02,31.353,53.416,30.380138397216797C53.109,30.191,52.959,30.37,52.61,29.91461944580078C52.604,29.727,52.723,29.761,52.351,29.08388900756836C52.275,29.076,52.353,29.34,52.4,29.539466857910156C51.628,28.275,51.128,26.242,51.566,24.6238956451416C51.551,25.47,51.796,24.307,51.887,24.428207397460938C51.975,23.914,52.101,23.397,52.28,22.888526916503906C52.168,23.32,51.877,24.365,51.949,25.1798038482666C52.19,24.823,52.319,25.74,52.531,24.753965377807617C52.51,24.349,52.311,25.032,52.361,24.366981506347656C52.506,24.116,52.555,23.81,52.68,23.45415687561035C52.756,23.522,52.666,23.92,52.785,23.872793197631836C52.948,23.39,52.911,23.114,52.879,23.049428939819336C52.945,22.995,52.943,23.179,53.103,22.901649475097656C53.438,22.241,53.136,22.424,53.082,22.35840606689453C53.345,22.083,53.832,21.879,54.008,21.253211975097656L53.902,21.8388729095459C54.209,21.405,54.121,21.238,54.654,20.79485511779785C54.198,21.225,53.965,21.668,54.238,21.536272048950195C54.57,20.781,55.526,20.606,55.73,20.11128807067871L55.767,20.46755027770996C56.675,20.034,56,20.083,56.643,19.749208450317383C56.407,19.879,56.664,19.854,56.368,20.00620460510254C56.476,20.058,57.11,19.823,57.597,19.757347106933594C59.546,19.462,61.233,20.24,62.422,21.700122833251953L62.431,21.70541763305664C62.402,21.735,62.386,21.783,62.45,21.912708282470703C63.183,23.664,63.463,24.957,62.072,26.786609649658203C61.77,26.81,61.243,27.602,60.62,27.622745513916016C59.988,28.078,58.831,28.16,57.929,27.662443161010742C56.989,27.19,56.528,26.208,56.429,25.480003356933594C56.764,26.541,57.793,27.4,59.055,27.49277114868164C60.315,27.609,61.548,26.854,62.114,25.713897705078125C62.026,25.745,62.018,25.682,61.92,25.80971336364746C63.181,23.686,61.757,20.774,59.622,20.591829299926758L59.621,20.533510208129883C58.834,20.334,58.836,20.531,58.215,20.587656021118164C58.294,20.53,58.659,20.498,58.504,20.408227920532227C58.256,20.335,57.216,20.578,56.709,20.676626205444336C56.371,20.921,56.68,20.926,56.234,21.199100494384766L55.899,21.178834915161133C55.511,21.51,55.221,21.653,54.936,22.147085189819336" transform="matrix(1,0,0,1,0,0)"></path></g></symbol><pattern x="0" y="0" width="0" height="0" patternUnits="userSpaceOnUse" id="BgenPttrnLayer3" patternTransform="matrix(0.64,0,0,0.64,0,0)"><g id="PatternRootContent3"></g></pattern></defs><rect width="100%" height="100%" id="BgenPttrnRctLayer1" fill="url(#BgenPttrnLayer1)"></rect><rect width="100%" height="100%" id="BgenPttrnRctLayer2" fill="url(#BgenPttrnLayer2)"></rect><rect width="100%" height="100%" id="BgenPttrnRctLayer3" fill="url(#BgenPttrnLayer3)"></rect></svg>